<svg xmlns="http://www.w3.org/2000/svg" xmlns:xlink="http://www.w3.org/1999/xlink" version="1.1" data-diagram-type="ACTIVITY" style="width:1443px;height:1659px;background:#FFFFFF;" width="1443px" height="1659px" viewBox="0 0 1443 1659" zoomAndPan="magnify" preserveAspectRatio="none" contentStyleType="text/css"><?plantuml 1.2026.8?><defs/><g font-family="sans-serif" lengthAdjust="spacing"><g class="title" data-source-line="1"><text x="579.788" y="33.535" fill="#000" font-size="14" textLength="282.064" font-weight="700">UC3.2: Send Notification for Job Failure</text></g><rect x="20" y="54.785" width="1396.64" height="21.199" fill="none" style="stroke:none;"/><ellipse cx="506.923" cy="90.984" rx="10" ry="10" fill="#222" style="stroke:#222;stroke-width:1;"/><rect x="388.812" y="120.984" width="236.223" height="62.398" fill="#F8FAFC" style="stroke:#475569;stroke-width:0.5;" rx="12.5" ry="12.5"/><text x="398.812" y="142.586" fill="#000" font-size="12" textLength="216.223">Consume failure-notification request</text><text x="398.812" y="156.719" fill="#000" font-size="12" textLength="140.701">from Notification Queue</text><text x="398.812" y="170.852" fill="#000" font-size="12" textLength="168.58">(UserId, JobId, FailureDetails)</text><rect x="380.198" y="203.383" width="253.449" height="48.266" fill="#F8FAFC" style="stroke:#475569;stroke-width:0.5;" rx="12.5" ry="12.5"/><text x="390.198" y="224.984" fill="#000" font-size="12" textLength="233.449">Load enabled channels and destinations</text><text x="390.198" y="239.117" fill="#000" font-size="12" textLength="204.146">from Notification Preferences Store</text><rect x="430.483" y="320.126" width="152.879" height="48.266" fill="#F8FAFC" style="stroke:#475569;stroke-width:0.5;" rx="12.5" ry="12.5"/><text x="440.483" y="341.728" fill="#000" font-size="12" textLength="132.879">Record overall Skipped</text><text x="440.483" y="355.86" fill="#000" font-size="12" textLength="116.051">in Notification Store</text><ellipse cx="506.923" cy="400.759" rx="11" ry="11" fill="none" style="stroke:#222;stroke-width:1;"/><ellipse cx="506.923" cy="400.759" rx="6" ry="6" fill="#222" style="stroke:#222;stroke-width:1;"/><polygon points="446.396,271.648,567.45,271.648,579.45,283.648,567.45,295.648,446.396,295.648,434.396,283.648,446.396,271.648" fill="#EFF6FF" style="stroke:#475569;stroke-width:0.5;stroke-linejoin:miter;stroke-miterlimit:10;"/><text x="510.923" y="306.283" fill="#000" font-size="11" textLength="13.583">no</text><text x="446.396" y="287.806" fill="#000" font-size="11" textLength="121.054">Any enabled channels?</text><text x="579.45" y="281.328" fill="#000" font-size="11" textLength="17.483">yes</text><rect x="401.617" y="497.759" width="210.611" height="34.133" fill="#F8FAFC" style="stroke:#475569;stroke-width:0.5;" rx="12.5" ry="12.5"/><text x="411.617" y="519.36" fill="#000" font-size="12" textLength="190.611">Select next unprocessed channel</text><rect x="392.822" y="551.892" width="228.201" height="48.266" fill="#F8FAFC" style="stroke:#475569;stroke-width:0.5;" rx="12.5" ry="12.5"/><text x="402.822" y="573.493" fill="#000" font-size="12" textLength="208.201">Create pending channel notification</text><text x="402.822" y="587.626" fill="#000" font-size="12" textLength="116.051">in Notification Store</text><rect x="379.085" y="620.157" width="255.676" height="34.133" fill="#F8FAFC" style="stroke:#475569;stroke-width:0.5;" rx="12.5" ry="12.5"/><text x="389.085" y="641.759" fill="#000" font-size="12" textLength="235.676">Resolve adapter and validate destination</text><polygon points="445.051,674.29,568.795,674.29,580.795,687.245,568.795,700.2,445.051,700.2,433.051,687.245,445.051,674.29" fill="#EFF6FF" style="stroke:#475569;stroke-width:0.5;stroke-linejoin:miter;stroke-miterlimit:10;"/><text x="445.051" y="684.925" fill="#000" font-size="11" textLength="123.745">Adapter supported and</text><text x="445.051" y="697.88" fill="#000" font-size="11" textLength="114.361">destination available?</text><text x="415.568" y="684.925" fill="#000" font-size="11" textLength="17.483">yes</text><text x="580.795" y="684.925" fill="#000" font-size="11" textLength="13.583">no</text><rect x="135.084" y="720.2" width="214.074" height="34.133" fill="#F8FAFC" style="stroke:#475569;stroke-width:0.5;" rx="12.5" ry="12.5"/><text x="145.084" y="741.802" fill="#000" font-size="12" textLength="194.074">Prepare common failure message</text><polygon points="167.321,969.541,316.922,969.541,328.922,981.541,316.922,993.541,167.321,993.541,155.321,981.541,167.321,969.541" fill="#EFF6FF" style="stroke:#475569;stroke-width:0.5;stroke-linejoin:miter;stroke-miterlimit:10;"/><text x="167.321" y="985.698" fill="#000" font-size="11" textLength="149.601">Provider accepted message?</text><text x="137.838" y="979.221" fill="#000" font-size="11" textLength="17.483">yes</text><text x="328.922" y="979.221" fill="#000" font-size="11" textLength="13.583">no</text><rect x="53" y="1003.541" width="158.24" height="48.266" fill="#F8FAFC" style="stroke:#475569;stroke-width:0.5;" rx="12.5" ry="12.5"/><text x="63" y="1025.143" fill="#000" font-size="12" textLength="138.24">Record channel Success</text><text x="63" y="1039.275" fill="#000" font-size="12" textLength="116.051">in Notification Store</text><rect x="231.24" y="1003.541" width="241.766" height="48.266" fill="#F8FAFC" style="stroke:#475569;stroke-width:0.5;" rx="12.5" ry="12.5"/><text x="241.24" y="1025.143" fill="#000" font-size="12" textLength="221.766">Record channel Failure and send error</text><text x="241.24" y="1039.275" fill="#000" font-size="12" textLength="116.051">in Notification Store</text><polygon points="242.122,1057.807,254.122,1069.807,242.122,1081.807,230.122,1069.807,242.122,1057.807" fill="#EFF6FF" style="stroke:#475569;stroke-width:0.5;stroke-linejoin:miter;stroke-miterlimit:10;"/><rect x="625.699" y="720.2" width="292.051" height="48.266" fill="#F8FAFC" style="stroke:#475569;stroke-width:0.5;" rx="12.5" ry="12.5"/><text x="635.699" y="741.802" fill="#000" font-size="12" textLength="272.051">Record channel Failure and configuration error</text><text x="635.699" y="755.935" fill="#000" font-size="12" textLength="116.051">in Notification Store</text><polygon points="506.923,1091.807,518.923,1103.807,506.923,1115.807,494.923,1103.807,506.923,1091.807" fill="#EFF6FF" style="stroke:#475569;stroke-width:0.5;stroke-linejoin:miter;stroke-miterlimit:10;"/><path d="M607.367,1125.807 L607.367,1149.772 L587.367,1153.772 L607.367,1157.772 L607.367,1181.738 A0,0 0 0 0 607.367,1181.738 L900.783,1181.738 A0,0 0 0 0 900.783,1181.738 L900.783,1135.807 L890.783,1125.807 L607.367,1125.807 A0,0 0 0 0 607.367,1125.807" style="stroke:#181818;stroke-width:0.5;" fill="#FEFFDD"/><path d="M890.783,1125.807 L890.783,1135.807 L900.783,1135.807 L890.783,1125.807" style="stroke:#181818;stroke-width:0.5;" fill="#FEFFDD"/><text x="613.367" y="1143.375" fill="#000" font-size="13" textLength="220.403">Every channel gets one final result.</text><text x="613.367" y="1158.686" fill="#000" font-size="13" textLength="247.057">Failure does not stop the next channel.</text><text x="613.367" y="1173.996" fill="#000" font-size="13" textLength="272.416">Each channel is attempted once; no retries.</text><rect x="426.479" y="1136.706" width="160.889" height="34.133" fill="#F8FAFC" style="stroke:#475569;stroke-width:0.5;" rx="12.5" ry="12.5"/><text x="436.479" y="1158.308" fill="#000" font-size="12" textLength="140.889">Mark channel processed</text><polygon points="506.923,453.759,518.923,465.759,506.923,477.759,494.923,465.759,506.923,453.759" fill="#EFF6FF" style="stroke:#475569;stroke-width:0.5;stroke-linejoin:miter;stroke-miterlimit:10;"/><polygon points="430.208,1201.738,583.638,1201.738,595.638,1213.738,583.638,1225.738,430.208,1225.738,418.208,1213.738,430.208,1201.738" fill="#EFF6FF" style="stroke:#475569;stroke-width:0.5;stroke-linejoin:miter;stroke-miterlimit:10;"/><text x="510.923" y="1236.373" fill="#000" font-size="11" textLength="13.583">no</text><text x="430.208" y="1217.896" fill="#000" font-size="11" textLength="153.431">More unprocessed channels?</text><text x="595.638" y="1211.418" fill="#000" font-size="11" textLength="17.483">yes</text><rect x="420.813" y="1257.873" width="172.221" height="34.133" fill="#F8FAFC" style="stroke:#475569;stroke-width:0.5;" rx="12.5" ry="12.5"/><text x="430.813" y="1279.475" fill="#000" font-size="12" textLength="152.221">Aggregate channel results</text><polygon points="442.628,1312.006,571.218,1312.006,583.218,1324.006,571.218,1336.006,442.628,1336.006,430.628,1324.006,442.628,1312.006" fill="#EFF6FF" style="stroke:#475569;stroke-width:0.5;stroke-linejoin:miter;stroke-miterlimit:10;"/><text x="442.628" y="1328.163" fill="#000" font-size="11" textLength="128.589">All channels succeeded?</text><text x="413.145" y="1321.686" fill="#000" font-size="11" textLength="17.483">yes</text><text x="583.218" y="1321.686" fill="#000" font-size="11" textLength="13.583">no</text><rect x="245.164" y="1346.006" width="183.834" height="34.133" fill="#F8FAFC" style="stroke:#475569;stroke-width:0.5;" rx="12.5" ry="12.5"/><text x="255.164" y="1367.607" fill="#000" font-size="12" textLength="163.834">Set overall status to Success</text><polygon points="612.167,1346.006,741.363,1346.006,753.363,1358.006,741.363,1370.006,612.167,1370.006,600.167,1358.006,612.167,1346.006" fill="#EFF6FF" style="stroke:#475569;stroke-width:0.5;stroke-linejoin:miter;stroke-miterlimit:10;"/><text x="612.167" y="1362.163" fill="#000" font-size="11" textLength="129.196">Any channel succeeded?</text><text x="582.684" y="1355.686" fill="#000" font-size="11" textLength="17.483">yes</text><text x="753.363" y="1355.686" fill="#000" font-size="11" textLength="13.583">no</text><rect x="458.998" y="1380.006" width="217.771" height="34.133" fill="#F8FAFC" style="stroke:#475569;stroke-width:0.5;" rx="12.5" ry="12.5"/><text x="468.998" y="1401.607" fill="#000" font-size="12" textLength="197.771">Set overall status to Partial Failure</text><rect x="696.77" y="1380.006" width="177.752" height="34.133" fill="#F8FAFC" style="stroke:#475569;stroke-width:0.5;" rx="12.5" ry="12.5"/><text x="706.77" y="1401.607" fill="#000" font-size="12" textLength="157.752">Set overall status to Failure</text><polygon points="676.765,1420.139,688.765,1432.139,676.765,1444.139,664.765,1432.139,676.765,1420.139" fill="#EFF6FF" style="stroke:#475569;stroke-width:0.5;stroke-linejoin:miter;stroke-miterlimit:10;"/><polygon points="506.923,1450.139,518.923,1462.139,506.923,1474.139,494.923,1462.139,506.923,1450.139" fill="#EFF6FF" style="stroke:#475569;stroke-width:0.5;stroke-linejoin:miter;stroke-miterlimit:10;"/><rect x="402.001" y="1494.139" width="209.844" height="48.266" fill="#F8FAFC" style="stroke:#475569;stroke-width:0.5;" rx="12.5" ry="12.5"/><text x="412.001" y="1515.74" fill="#000" font-size="12" textLength="189.844">Record overall NotificationStatus</text><text x="412.001" y="1529.873" fill="#000" font-size="12" textLength="116.051">in Notification Store</text><rect x="417.622" y="1562.404" width="178.602" height="34.133" fill="#F8FAFC" style="stroke:#475569;stroke-width:0.5;" rx="12.5" ry="12.5"/><text x="427.622" y="1584.006" fill="#000" font-size="12" textLength="158.602">End notification processing</text><ellipse cx="506.923" cy="1627.537" rx="11" ry="11" fill="none" style="stroke:#222;stroke-width:1;"/><ellipse cx="506.923" cy="1627.537" rx="6" ry="6" fill="#222" style="stroke:#222;stroke-width:1;"/><line x1="20" y1="54.785" x2="20" y2="1638.537" style="stroke:#000;stroke-width:1.5;"/><path d="M1184.681,785.222 L1184.681,801.532 L1164.681,805.532 L1184.681,809.532 L1184.681,825.843 A0,0 0 0 0 1184.681,825.843 L1369.603,825.843 A0,0 0 0 0 1369.603,825.843 L1369.603,795.222 L1359.603,785.222 L1184.681,785.222 A0,0 0 0 0 1184.681,785.222" style="stroke:#181818;stroke-width:0.5;" fill="#FEFFDD"/><path d="M1359.603,785.222 L1359.603,795.222 L1369.603,795.222 L1359.603,785.222" style="stroke:#181818;stroke-width:0.5;" fill="#FEFFDD"/><text x="1190.681" y="802.79" fill="#000" font-size="13" textLength="163.922">Interchangeable adapters:</text><text x="1190.681" y="818.101" fill="#000" font-size="13" textLength="128.045">Email, Slack, Teams.</text><rect x="927.75" y="788.466" width="236.932" height="34.133" fill="#F8FAFC" style="stroke:#475569;stroke-width:0.5;" rx="12.5" ry="12.5"/><text x="937.75" y="810.067" fill="#000" font-size="12" textLength="216.932">Format message for selected channel</text><rect x="933.899" y="847.143" width="224.633" height="34.133" fill="#F8FAFC" style="stroke:#475569;stroke-width:0.5;" rx="12.5" ry="12.5"/><text x="943.899" y="868.744" fill="#000" font-size="12" textLength="204.633">Send through external provider API</text><path d="M1159.553,905.098 L1159.553,921.408 L1139.553,925.408 L1159.553,929.408 L1159.553,945.719 A0,0 0 0 0 1159.553,945.719 L1409.792,945.719 A0,0 0 0 0 1409.792,945.719 L1409.792,915.098 L1399.792,905.098 L1159.553,905.098 A0,0 0 0 0 1159.553,905.098" style="stroke:#181818;stroke-width:0.5;" fill="#FEFFDD"/><path d="M1399.792,905.098 L1399.792,915.098 L1409.792,915.098 L1399.792,905.098" style="stroke:#181818;stroke-width:0.5;" fill="#FEFFDD"/><text x="1165.553" y="922.666" fill="#000" font-size="13" textLength="229.239">Success means provider acceptance,</text><text x="1165.553" y="937.977" fill="#000" font-size="13" textLength="210.038">not confirmed receipt or reading.</text><rect x="952.877" y="901.275" width="186.676" height="48.266" fill="#F8FAFC" style="stroke:#475569;stroke-width:0.5;" rx="12.5" ry="12.5"/><text x="962.877" y="922.877" fill="#000" font-size="12" textLength="146.402">Return Success or Failure</text><text x="962.877" y="937.01" fill="#000" font-size="12" textLength="166.676">(with error details on failure)</text><line x1="921.75" y1="54.785" x2="921.75" y2="1638.537" style="stroke:#000;stroke-width:1.5;"/><line x1="1414.792" y1="54.785" x2="1414.792" y2="1638.537" style="stroke:#000;stroke-width:1.5;"/><line x1="506.923" y1="100.984" x2="506.923" y2="120.984" style="stroke:#475569;stroke-width:1;"/><polygon points="502.923,110.984,506.923,120.984,510.923,110.984,506.923,114.984" fill="#475569" style="stroke:#475569;stroke-width:1;stroke-linejoin:miter;stroke-miterlimit:10;"/><line x1="506.923" y1="183.383" x2="506.923" y2="203.383" style="stroke:#475569;stroke-width:1;"/><polygon points="502.923,193.383,506.923,203.383,510.923,193.383,506.923,197.383" fill="#475569" style="stroke:#475569;stroke-width:1;stroke-linejoin:miter;stroke-miterlimit:10;"/><line x1="506.923" y1="368.392" x2="506.923" y2="389.759" style="stroke:#475569;stroke-width:1;"/><polygon points="502.923,379.759,506.923,389.759,510.923,379.759,506.923,383.759" fill="#475569" style="stroke:#475569;stroke-width:1;stroke-linejoin:miter;stroke-miterlimit:10;"/><line x1="506.923" y1="295.648" x2="506.923" y2="320.126" style="stroke:#475569;stroke-width:1;"/><polygon points="502.923,310.126,506.923,320.126,510.923,310.126,506.923,314.126" fill="#475569" style="stroke:#475569;stroke-width:1;stroke-linejoin:miter;stroke-miterlimit:10;"/><line x1="579.45" y1="283.648" x2="593.362" y2="283.648" style="stroke:#475569;stroke-width:1;"/><polygon points="589.362,359.759,593.362,369.759,597.362,359.759,593.362,363.759" fill="#475569" style="stroke:#475569;stroke-width:1;stroke-linejoin:miter;stroke-miterlimit:10;"/><line x1="593.362" y1="283.648" x2="593.362" y2="433.759" style="stroke:#475569;stroke-width:1;"/><line x1="593.362" y1="433.759" x2="506.923" y2="433.759" style="stroke:#475569;stroke-width:1;"/><line x1="506.923" y1="433.759" x2="506.923" y2="453.759" style="stroke:#475569;stroke-width:1;"/><polygon points="502.923,443.759,506.923,453.759,510.923,443.759,506.923,447.759" fill="#475569" style="stroke:#475569;stroke-width:1;stroke-linejoin:miter;stroke-miterlimit:10;"/><line x1="506.923" y1="251.648" x2="506.923" y2="271.648" style="stroke:#475569;stroke-width:1;"/><polygon points="502.923,261.648,506.923,271.648,510.923,261.648,506.923,265.648" fill="#475569" style="stroke:#475569;stroke-width:1;stroke-linejoin:miter;stroke-miterlimit:10;"/><line x1="506.923" y1="531.892" x2="506.923" y2="551.892" style="stroke:#475569;stroke-width:1;"/><polygon points="502.923,541.892,506.923,551.892,510.923,541.892,506.923,545.892" fill="#475569" style="stroke:#475569;stroke-width:1;stroke-linejoin:miter;stroke-miterlimit:10;"/><line x1="506.923" y1="600.157" x2="506.923" y2="620.157" style="stroke:#475569;stroke-width:1;"/><polygon points="502.923,610.157,506.923,620.157,510.923,610.157,506.923,614.157" fill="#475569" style="stroke:#475569;stroke-width:1;stroke-linejoin:miter;stroke-miterlimit:10;"/><line x1="155.321" y1="981.541" x2="132.12" y2="981.541" style="stroke:#475569;stroke-width:1;"/><line x1="132.12" y1="981.541" x2="132.12" y2="1003.541" style="stroke:#475569;stroke-width:1;"/><polygon points="128.12,993.541,132.12,1003.541,136.12,993.541,132.12,997.541" fill="#475569" style="stroke:#475569;stroke-width:1;stroke-linejoin:miter;stroke-miterlimit:10;"/><line x1="328.922" y1="981.541" x2="352.123" y2="981.541" style="stroke:#475569;stroke-width:1;"/><line x1="352.123" y1="981.541" x2="352.123" y2="1003.541" style="stroke:#475569;stroke-width:1;"/><polygon points="348.123,993.541,352.123,1003.541,356.123,993.541,352.123,997.541" fill="#475569" style="stroke:#475569;stroke-width:1;stroke-linejoin:miter;stroke-miterlimit:10;"/><line x1="132.12" y1="1051.807" x2="132.12" y2="1069.807" style="stroke:#475569;stroke-width:1;"/><line x1="132.12" y1="1069.807" x2="230.122" y2="1069.807" style="stroke:#475569;stroke-width:1;"/><polygon points="220.122,1065.807,230.122,1069.807,220.122,1073.807,224.122,1069.807" fill="#475569" style="stroke:#475569;stroke-width:1;stroke-linejoin:miter;stroke-miterlimit:10;"/><line x1="352.123" y1="1051.807" x2="352.123" y2="1069.807" style="stroke:#475569;stroke-width:1;"/><line x1="352.123" y1="1069.807" x2="254.122" y2="1069.807" style="stroke:#475569;stroke-width:1;"/><polygon points="264.122,1065.807,254.122,1069.807,264.122,1073.807,260.122,1069.807" fill="#475569" style="stroke:#475569;stroke-width:1;stroke-linejoin:miter;stroke-miterlimit:10;"/><line x1="433.051" y1="687.245" x2="242.122" y2="687.245" style="stroke:#475569;stroke-width:1;"/><line x1="242.122" y1="687.245" x2="242.122" y2="720.2" style="stroke:#475569;stroke-width:1;"/><polygon points="238.122,710.2,242.122,720.2,246.122,710.2,242.122,714.2" fill="#475569" style="stroke:#475569;stroke-width:1;stroke-linejoin:miter;stroke-miterlimit:10;"/><line x1="580.795" y1="687.245" x2="771.724" y2="687.245" style="stroke:#475569;stroke-width:1;"/><line x1="771.724" y1="687.245" x2="771.724" y2="720.2" style="stroke:#475569;stroke-width:1;"/><polygon points="767.724,710.2,771.724,720.2,775.724,710.2,771.724,714.2" fill="#475569" style="stroke:#475569;stroke-width:1;stroke-linejoin:miter;stroke-miterlimit:10;"/><line x1="242.122" y1="1081.807" x2="242.122" y2="1103.807" style="stroke:#475569;stroke-width:1;"/><line x1="242.122" y1="1103.807" x2="494.923" y2="1103.807" style="stroke:#475569;stroke-width:1;"/><polygon points="484.923,1099.807,494.923,1103.807,484.923,1107.807,488.923,1103.807" fill="#475569" style="stroke:#475569;stroke-width:1;stroke-linejoin:miter;stroke-miterlimit:10;"/><line x1="771.724" y1="768.466" x2="771.724" y2="1103.807" style="stroke:#475569;stroke-width:1;"/><line x1="771.724" y1="1103.807" x2="518.923" y2="1103.807" style="stroke:#475569;stroke-width:1;"/><polygon points="528.923,1099.807,518.923,1103.807,528.923,1107.807,524.923,1103.807" fill="#475569" style="stroke:#475569;stroke-width:1;stroke-linejoin:miter;stroke-miterlimit:10;"/><line x1="506.923" y1="654.29" x2="506.923" y2="674.29" style="stroke:#475569;stroke-width:1;"/><polygon points="502.923,664.29,506.923,674.29,510.923,664.29,506.923,668.29" fill="#475569" style="stroke:#475569;stroke-width:1;stroke-linejoin:miter;stroke-miterlimit:10;"/><line x1="506.923" y1="1115.807" x2="506.923" y2="1136.706" style="stroke:#475569;stroke-width:1;"/><polygon points="502.923,1126.706,506.923,1136.706,510.923,1126.706,506.923,1130.706" fill="#475569" style="stroke:#475569;stroke-width:1;stroke-linejoin:miter;stroke-miterlimit:10;"/><line x1="506.923" y1="477.759" x2="506.923" y2="497.759" style="stroke:#475569;stroke-width:1;"/><polygon points="502.923,487.759,506.923,497.759,510.923,487.759,506.923,491.759" fill="#475569" style="stroke:#475569;stroke-width:1;stroke-linejoin:miter;stroke-miterlimit:10;"/><line x1="418.208" y1="1213.738" x2="39" y2="1213.738" style="stroke:#475569;stroke-width:1;"/><polygon points="35,845.843,39,835.843,43,845.843,39,841.843" fill="#475569" style="stroke:#475569;stroke-width:1;stroke-linejoin:miter;stroke-miterlimit:10;"/><line x1="39" y1="465.759" x2="39" y2="1213.738" style="stroke:#475569;stroke-width:1;"/><line x1="39" y1="465.759" x2="494.923" y2="465.759" style="stroke:#475569;stroke-width:1;"/><polygon points="484.923,461.759,494.923,465.759,484.923,469.759,488.923,465.759" fill="#475569" style="stroke:#475569;stroke-width:1;stroke-linejoin:miter;stroke-miterlimit:10;"/><line x1="506.923" y1="1170.839" x2="506.923" y2="1201.738" style="stroke:#475569;stroke-width:1;"/><polygon points="502.923,1191.738,506.923,1201.738,510.923,1191.738,506.923,1195.738" fill="#475569" style="stroke:#475569;stroke-width:1;stroke-linejoin:miter;stroke-miterlimit:10;"/><line x1="506.923" y1="1225.738" x2="506.923" y2="1257.873" style="stroke:#475569;stroke-width:1;"/><polygon points="502.923,1247.873,506.923,1257.873,510.923,1247.873,506.923,1251.873" fill="#475569" style="stroke:#475569;stroke-width:1;stroke-linejoin:miter;stroke-miterlimit:10;"/><line x1="600.167" y1="1358.006" x2="567.884" y2="1358.006" style="stroke:#475569;stroke-width:1;"/><line x1="567.884" y1="1358.006" x2="567.884" y2="1380.006" style="stroke:#475569;stroke-width:1;"/><polygon points="563.884,1370.006,567.884,1380.006,571.884,1370.006,567.884,1374.006" fill="#475569" style="stroke:#475569;stroke-width:1;stroke-linejoin:miter;stroke-miterlimit:10;"/><line x1="753.363" y1="1358.006" x2="785.646" y2="1358.006" style="stroke:#475569;stroke-width:1;"/><line x1="785.646" y1="1358.006" x2="785.646" y2="1380.006" style="stroke:#475569;stroke-width:1;"/><polygon points="781.646,1370.006,785.646,1380.006,789.646,1370.006,785.646,1374.006" fill="#475569" style="stroke:#475569;stroke-width:1;stroke-linejoin:miter;stroke-miterlimit:10;"/><line x1="567.884" y1="1414.139" x2="567.884" y2="1432.139" style="stroke:#475569;stroke-width:1;"/><line x1="567.884" y1="1432.139" x2="664.765" y2="1432.139" style="stroke:#475569;stroke-width:1;"/><polygon points="654.765,1428.139,664.765,1432.139,654.765,1436.139,658.765,1432.139" fill="#475569" style="stroke:#475569;stroke-width:1;stroke-linejoin:miter;stroke-miterlimit:10;"/><line x1="785.646" y1="1414.139" x2="785.646" y2="1432.139" style="stroke:#475569;stroke-width:1;"/><line x1="785.646" y1="1432.139" x2="688.765" y2="1432.139" style="stroke:#475569;stroke-width:1;"/><polygon points="698.765,1428.139,688.765,1432.139,698.765,1436.139,694.765,1432.139" fill="#475569" style="stroke:#475569;stroke-width:1;stroke-linejoin:miter;stroke-miterlimit:10;"/><line x1="430.628" y1="1324.006" x2="337.081" y2="1324.006" style="stroke:#475569;stroke-width:1;"/><line x1="337.081" y1="1324.006" x2="337.081" y2="1346.006" style="stroke:#475569;stroke-width:1;"/><polygon points="333.081,1336.006,337.081,1346.006,341.081,1336.006,337.081,1340.006" fill="#475569" style="stroke:#475569;stroke-width:1;stroke-linejoin:miter;stroke-miterlimit:10;"/><line x1="583.218" y1="1324.006" x2="676.765" y2="1324.006" style="stroke:#475569;stroke-width:1;"/><line x1="676.765" y1="1324.006" x2="676.765" y2="1346.006" style="stroke:#475569;stroke-width:1;"/><polygon points="672.765,1336.006,676.765,1346.006,680.765,1336.006,676.765,1340.006" fill="#475569" style="stroke:#475569;stroke-width:1;stroke-linejoin:miter;stroke-miterlimit:10;"/><line x1="337.081" y1="1380.139" x2="337.081" y2="1462.139" style="stroke:#475569;stroke-width:1;"/><line x1="337.081" y1="1462.139" x2="494.923" y2="1462.139" style="stroke:#475569;stroke-width:1;"/><polygon points="484.923,1458.139,494.923,1462.139,484.923,1466.139,488.923,1462.139" fill="#475569" style="stroke:#475569;stroke-width:1;stroke-linejoin:miter;stroke-miterlimit:10;"/><line x1="676.765" y1="1444.139" x2="676.765" y2="1462.139" style="stroke:#475569;stroke-width:1;"/><line x1="676.765" y1="1462.139" x2="518.923" y2="1462.139" style="stroke:#475569;stroke-width:1;"/><polygon points="528.923,1458.139,518.923,1462.139,528.923,1466.139,524.923,1462.139" fill="#475569" style="stroke:#475569;stroke-width:1;stroke-linejoin:miter;stroke-miterlimit:10;"/><line x1="506.923" y1="1292.006" x2="506.923" y2="1312.006" style="stroke:#475569;stroke-width:1;"/><polygon points="502.923,1302.006,506.923,1312.006,510.923,1302.006,506.923,1306.006" fill="#475569" style="stroke:#475569;stroke-width:1;stroke-linejoin:miter;stroke-miterlimit:10;"/><line x1="506.923" y1="1474.139" x2="506.923" y2="1494.139" style="stroke:#475569;stroke-width:1;"/><polygon points="502.923,1484.139,506.923,1494.139,510.923,1484.139,506.923,1488.139" fill="#475569" style="stroke:#475569;stroke-width:1;stroke-linejoin:miter;stroke-miterlimit:10;"/><line x1="506.923" y1="1542.404" x2="506.923" y2="1562.404" style="stroke:#475569;stroke-width:1;"/><polygon points="502.923,1552.404,506.923,1562.404,510.923,1552.404,506.923,1556.404" fill="#475569" style="stroke:#475569;stroke-width:1;stroke-linejoin:miter;stroke-miterlimit:10;"/><line x1="506.923" y1="1596.537" x2="506.923" y2="1616.537" style="stroke:#475569;stroke-width:1;"/><polygon points="502.923,1606.537,506.923,1616.537,510.923,1606.537,506.923,1610.537" fill="#475569" style="stroke:#475569;stroke-width:1;stroke-linejoin:miter;stroke-miterlimit:10;"/><line x1="1046.215" y1="822.599" x2="1046.215" y2="847.143" style="stroke:#475569;stroke-width:1;"/><polygon points="1042.215,837.143,1046.215,847.143,1050.215,837.143,1046.215,841.143" fill="#475569" style="stroke:#475569;stroke-width:1;stroke-linejoin:miter;stroke-miterlimit:10;"/><line x1="1046.215" y1="881.275" x2="1046.215" y2="901.275" style="stroke:#475569;stroke-width:1;"/><polygon points="1042.215,891.275,1046.215,901.275,1050.215,891.275,1046.215,895.275" fill="#475569" style="stroke:#475569;stroke-width:1;stroke-linejoin:miter;stroke-miterlimit:10;"/><line x1="242.122" y1="754.333" x2="242.122" y2="773.455" style="stroke:#475569;stroke-width:1;"/><line x1="242.122" y1="773.455" x2="1046.215" y2="773.455" style="stroke:#475569;stroke-width:1;"/><line x1="1046.215" y1="773.455" x2="1046.215" y2="788.466" style="stroke:#475569;stroke-width:1;"/><polygon points="1042.215,778.466,1046.215,788.466,1050.215,778.466,1046.215,782.466" fill="#475569" style="stroke:#475569;stroke-width:1;stroke-linejoin:miter;stroke-miterlimit:10;"/><line x1="1046.215" y1="949.541" x2="1046.215" y2="954.541" style="stroke:#475569;stroke-width:1;"/><line x1="1046.215" y1="954.541" x2="242.122" y2="954.541" style="stroke:#475569;stroke-width:1;"/><line x1="242.122" y1="954.541" x2="242.122" y2="969.541" style="stroke:#475569;stroke-width:1;"/><polygon points="238.122,959.541,242.122,969.541,246.122,959.541,242.122,963.541" fill="#475569" style="stroke:#475569;stroke-width:1;stroke-linejoin:miter;stroke-miterlimit:10;"/><text x="383.177" y="72.188" fill="#000" font-size="18" textLength="175.395">Notification Handler</text><text x="1095.282" y="72.188" fill="#000" font-size="18" textLength="145.978">Channel Adapter</text><?plantuml-src XLLDRzim3BtxLn3O9G6w7lOzvp1aMOnrM8jkMM-zQ3Rj2BKbZwBJ5Ul--oXPJfmqxNB8byX7whr7cZNN25UBbwSlKbYXAU32iYvrhbXR0wKb-69_GgPqtH4cYRlHfbMa6d1hLTXRRIeeLUrmT59WgRgQCsluGZK8AsNS2acNevWvaRrTs5hmdxrw-_hrc_UZGvMptcY-Wpy9m4ULtrHaErF4yEnTDiyM_iHIWRGF0l19gyQQua7QCilUPDaeu4ZstoIvtxl_PsMA6ka-SQo8atHXZUlaIcNFntCp3YRyrQ7ZQrEIRVPv_DPXXzTcSkMGpeeJpwd_YBH-GfOlRZfBqgzM5O16_QonW7ojZC7QWNGXh3hM9i2vOoKk2KiaD3awMB4bd2MwXCdSt3t0-p05NgE1oHswQI9_84oCdGetwNVCXHUm6oHLrx2wqMsBnRNHPhzQh03WsBQ9-4RKJGXRLEnXLbXZpc3mDqDdMhBIbTjru1FJ1KamGkkJnKNn2CQKFb5NEdMstY2eGhMC53ZQg5eN7dH4bWyEHCGurxMj9PPc9EFQZ291RKG6JzK-GI2lLEWLSoBajcdyOFJAGIFtKfLq5ABk5_4IiTXzdvjPQXGFiM6eN21edn7mTqSWNQqv_0GuCuBYGohqVGsNTMayNpRInmciQd7x2Vn0rRZJSEGdsQFr3OJ1vhMCGxK6qGJ9g1f4besM6O3vvLbVNqZbZeJbBlU2WJGQBIhUlTKioJAt9FG6myAEYEaZ5nYG6fGbiAkevD-MbPZr90PAfd1hIasDi4AOesxPDo0kyVuuk5PFz_5PzKTUySlzQW8R5NWexyxvWmrZuqyuKBePJSunZCXTiARphGVsdeOCatG8_HHm8Atgg8VwNuKugG9vhkXc2xYTK1zp8E9ITi7TDh92zhgBYxNt4A6JLT-BCtHLM5b1Na-_6ppJ_Hw827tiKkNhBQQM3SUCJT38YYbcaYxGJ1g3dxUozni6RjTQXc5oBfSwjbxyWXFC86ze912PfFEg8gpyVXWgz-sxk2fbuMrNhlFwOu75eLbac7Yx7-Mnm9q3jeDVPdlhT5Z0Gxb7GH-5lPJ7ZbPRnMSFhN4yRnmV9E_V3_Vxs2IhaFoeTz9bByBk8F8kmpbBmcFW7m00?></g></svg>