<svg xmlns="http://www.w3.org/2000/svg" xmlns:xlink="http://www.w3.org/1999/xlink" version="1.1" data-diagram-type="ACTIVITY" style="width:687px;height:2014px;background:#FFFFFF;" width="687px" height="2014px" viewBox="0 0 687 2014" zoomAndPan="magnify" preserveAspectRatio="none" contentStyleType="text/css"><?plantuml 1.2026.8?><defs/><g font-family="sans-serif" lengthAdjust="spacing"><g class="title" data-source-line="1"><text x="194.287" y="33.535" fill="#000" font-size="14" textLength="297.158" font-weight="700">UC2.1: Execute a Job at a Scheduled Time</text></g><rect x="16" y="53.488" width="639.733" height="843.836" fill="none" style="stroke:#000;stroke-width:1.5;"/><path d="M137.856,53.488 L137.856,62.977 L127.856,72.977 L16,72.977" style="stroke:#000;stroke-width:1.5;" fill="none"/><text x="19" y="68.023" fill="#000" font-size="14" textLength="111.856">Job Orchestrator</text><ellipse cx="220.246" cy="92.977" rx="10" ry="10" fill="#222" style="stroke:#222;stroke-width:1;"/><rect x="143.156" y="122.977" width="154.18" height="34.133" fill="#F8FAFC" style="stroke:#475569;stroke-width:0.5;" rx="12.5" ry="12.5"/><text x="153.156" y="144.578" fill="#000" font-size="12" textLength="134.18">Internal scheduler fires</text><rect x="81.117" y="177.109" width="278.258" height="48.266" fill="#F8FAFC" style="stroke:#475569;stroke-width:0.5;" rx="12.5" ry="12.5"/><text x="91.117" y="198.711" fill="#000" font-size="12" textLength="258.258">Retrieve due jobs, snapshots, and schedules</text><text x="91.117" y="212.844" fill="#000" font-size="12" textLength="185.08">from Job Orchestrator Database</text><polygon points="183.108,245.375,257.385,245.375,269.385,257.375,257.385,269.375,183.108,269.375,171.108,257.375,183.108,245.375" fill="#EFF6FF" style="stroke:#475569;stroke-width:0.5;stroke-linejoin:miter;stroke-miterlimit:10;"/><text x="183.108" y="261.532" fill="#000" font-size="11" textLength="74.277">Any jobs due?</text><text x="153.625" y="255.055" fill="#000" font-size="11" textLength="17.483">yes</text><text x="269.385" y="255.055" fill="#000" font-size="11" textLength="13.583">no</text><rect x="28" y="279.375" width="195.969" height="34.133" fill="#F8FAFC" style="stroke:#475569;stroke-width:0.5;" rx="12.5" ry="12.5"/><text x="38" y="300.977" fill="#000" font-size="12" textLength="175.969">Split jobs into parallel batches</text><rect x="243.969" y="279.375" width="141.078" height="34.133" fill="#F8FAFC" style="stroke:#475569;stroke-width:0.5;" rx="12.5" ry="12.5"/><text x="253.969" y="300.977" fill="#000" font-size="12" textLength="121.078">End scheduling cycle</text><ellipse cx="314.508" cy="344.508" rx="11" ry="11" fill="none" style="stroke:#222;stroke-width:1;"/><ellipse cx="314.508" cy="344.508" rx="6" ry="6" fill="#222" style="stroke:#222;stroke-width:1;"/><path d="M345.188,365.508 L345.188,389.474 L325.188,393.474 L345.188,397.474 L345.188,421.439 A0,0 0 0 0 345.188,421.439 L645.733,421.439 A0,0 0 0 0 645.733,421.439 L645.733,375.508 L635.733,365.508 L345.188,365.508 A0,0 0 0 0 345.188,365.508" style="stroke:#181818;stroke-width:0.5;" fill="#FEFFDD"/><path d="M635.733,365.508 L635.733,375.508 L645.733,375.508 L635.733,365.508" style="stroke:#181818;stroke-width:0.5;" fill="#FEFFDD"/><text x="351.188" y="383.076" fill="#000" font-size="13" textLength="243.636">The flow below runs independently for</text><text x="351.188" y="398.387" fill="#000" font-size="13" textLength="201.145">each job in the parallel batches.</text><text x="351.188" y="413.697" fill="#000" font-size="13" textLength="279.544">Ending an attempt does not stop other jobs.</text><rect x="115.304" y="376.407" width="209.885" height="34.133" fill="#F8FAFC" style="stroke:#475569;stroke-width:0.5;" rx="12.5" ry="12.5"/><text x="125.304" y="398.009" fill="#000" font-size="12" textLength="189.885">Begin one job execution attempt</text><rect x="126.196" y="489.917" width="188.1" height="48.266" fill="#F8FAFC" style="stroke:#475569;stroke-width:0.5;" rx="12.5" ry="12.5"/><text x="136.196" y="511.519" fill="#000" font-size="12" textLength="159.645">Attempt to acquire job lock</text><text x="136.196" y="525.651" fill="#000" font-size="12" textLength="168.1">in Job Orchestrator Database</text><rect x="114.48" y="606.66" width="211.531" height="48.266" fill="#F8FAFC" style="stroke:#475569;stroke-width:0.5;" rx="12.5" ry="12.5"/><text x="124.48" y="628.262" fill="#000" font-size="12" textLength="191.531">Enqueue lock-failure notification</text><text x="124.48" y="642.395" fill="#000" font-size="12" textLength="170.912">in Notification Queue (UC3.2)</text><rect x="107.845" y="674.926" width="224.803" height="34.133" fill="#F8FAFC" style="stroke:#475569;stroke-width:0.5;" rx="12.5" ry="12.5"/><text x="117.845" y="696.527" fill="#000" font-size="12" textLength="204.803">End this attempt without execution</text><ellipse cx="220.246" cy="740.059" rx="11" ry="11" fill="none" style="stroke:#222;stroke-width:1;"/><ellipse cx="220.246" cy="740.059" rx="6" ry="6" fill="#222" style="stroke:#222;stroke-width:1;"/><polygon points="180.747,558.183,259.745,558.183,271.745,570.183,259.745,582.183,180.747,582.183,168.747,570.183,180.747,558.183" fill="#EFF6FF" style="stroke:#475569;stroke-width:0.5;stroke-linejoin:miter;stroke-miterlimit:10;"/><text x="224.246" y="592.817" fill="#000" font-size="11" textLength="13.583">no</text><text x="180.747" y="574.34" fill="#000" font-size="11" textLength="78.998">Lock acquired?</text><text x="271.745" y="567.862" fill="#000" font-size="11" textLength="17.483">yes</text><polygon points="182.775,441.439,257.718,441.439,269.718,453.439,257.718,465.439,182.775,465.439,170.775,453.439,182.775,441.439" fill="#EFF6FF" style="stroke:#475569;stroke-width:0.5;stroke-linejoin:miter;stroke-miterlimit:10;"/><text x="224.246" y="476.074" fill="#000" font-size="11" textLength="17.483">yes</text><text x="182.775" y="457.597" fill="#000" font-size="11" textLength="74.943">Singleton job?</text><text x="269.718" y="451.119" fill="#000" font-size="11" textLength="78.294">no: concurrent</text><polygon points="220.246,793.059,232.246,805.059,220.246,817.059,208.246,805.059,220.246,793.059" fill="#EFF6FF" style="stroke:#475569;stroke-width:0.5;stroke-linejoin:miter;stroke-miterlimit:10;"/><rect x="133.301" y="837.059" width="173.891" height="48.266" fill="#F8FAFC" style="stroke:#475569;stroke-width:0.5;" rx="12.5" ry="12.5"/><text x="143.301" y="858.66" fill="#000" font-size="12" textLength="153.891">Enqueue execution trigger</text><text x="143.301" y="872.793" fill="#000" font-size="12" textLength="135.469">in Job Execution Queue</text><rect x="68.14" y="907.324" width="599.593" height="576.507" fill="none" style="stroke:#000;stroke-width:1.5;"/><path d="M152.781,907.324 L152.781,916.813 L142.781,926.813 L68.14,926.813" style="stroke:#000;stroke-width:1.5;" fill="none"/><text x="71.14" y="921.859" fill="#000" font-size="14" textLength="74.642">Job Runner</text><rect x="136.45" y="943.813" width="167.592" height="34.133" fill="#F8FAFC" style="stroke:#475569;stroke-width:0.5;" rx="12.5" ry="12.5"/><text x="146.45" y="965.414" fill="#000" font-size="12" textLength="147.592">Receive execution trigger</text><rect x="88.14" y="1048.333" width="264.213" height="34.133" fill="#F8FAFC" style="stroke:#475569;stroke-width:0.5;" rx="12.5" ry="12.5"/><text x="98.14" y="1069.935" fill="#000" font-size="12" textLength="244.213">Wait until scheduled execution time (UTC)</text><polygon points="151.501,997.945,288.991,997.945,300.991,1010.9,288.991,1023.855,151.501,1023.855,139.501,1010.9,151.501,997.945" fill="#EFF6FF" style="stroke:#475569;stroke-width:0.5;stroke-linejoin:miter;stroke-miterlimit:10;"/><text x="224.246" y="1034.49" fill="#000" font-size="11" textLength="17.483">yes</text><text x="151.501" y="1008.58" fill="#000" font-size="11" textLength="137.489">Scheduled execution time</text><text x="151.501" y="1021.535" fill="#000" font-size="11" textLength="93.86">still in the future?</text><text x="300.991" y="1008.58" fill="#000" font-size="11" textLength="13.583">no</text><polygon points="220.246,1102.466,232.246,1114.466,220.246,1126.466,208.246,1114.466,220.246,1102.466" fill="#EFF6FF" style="stroke:#475569;stroke-width:0.5;stroke-linejoin:miter;stroke-miterlimit:10;"/><rect x="118.371" y="1146.466" width="203.75" height="34.133" fill="#F8FAFC" style="stroke:#475569;stroke-width:0.5;" rx="12.5" ry="12.5"/><text x="128.371" y="1168.067" fill="#000" font-size="12" textLength="183.75">Start configured job integration</text><rect x="82.652" y="1244.599" width="275.188" height="34.133" fill="#F8FAFC" style="stroke:#475569;stroke-width:0.5;" rx="12.5" ry="12.5"/><text x="92.652" y="1266.2" fill="#000" font-size="12" textLength="255.188">Observe integration progress or completion</text><path d="M347.764,1302.987 L347.764,1319.298 L327.764,1323.298 L347.764,1327.298 L347.764,1343.608 A0,0 0 0 0 347.764,1343.608 L634.864,1343.608 A0,0 0 0 0 634.864,1343.608 L634.864,1312.987 L624.864,1302.987 L347.764,1302.987 A0,0 0 0 0 347.764,1302.987" style="stroke:#181818;stroke-width:0.5;" fill="#FEFFDD"/><path d="M624.864,1302.987 L624.864,1312.987 L634.864,1312.987 L624.864,1302.987" style="stroke:#181818;stroke-width:0.5;" fill="#FEFFDD"/><text x="353.764" y="1320.556" fill="#000" font-size="13" textLength="220.962">The loop tracks a single execution.</text><text x="353.764" y="1335.866" fill="#000" font-size="13" textLength="266.1">It does not retry or restart the integration.</text><rect x="112.729" y="1299.165" width="215.035" height="48.266" fill="#F8FAFC" style="stroke:#475569;stroke-width:0.5;" rx="12.5" ry="12.5"/><text x="122.729" y="1320.767" fill="#000" font-size="12" textLength="191.162">Stream available logs and output</text><text x="122.729" y="1334.899" fill="#000" font-size="12" textLength="195.035">to execution log / output storage</text><polygon points="220.246,1200.599,232.246,1212.599,220.246,1224.599,208.246,1212.599,220.246,1200.599" fill="#EFF6FF" style="stroke:#475569;stroke-width:0.5;stroke-linejoin:miter;stroke-miterlimit:10;"/><polygon points="157.804,1367.431,282.688,1367.431,294.688,1379.431,282.688,1391.431,157.804,1391.431,145.804,1379.431,157.804,1367.431" fill="#EFF6FF" style="stroke:#475569;stroke-width:0.5;stroke-linejoin:miter;stroke-miterlimit:10;"/><text x="224.246" y="1402.065" fill="#000" font-size="11" textLength="113.744">no: success or failure</text><text x="157.804" y="1383.588" fill="#000" font-size="11" textLength="124.883">Execution still running?</text><text x="294.688" y="1377.11" fill="#000" font-size="11" textLength="17.483">yes</text><rect x="96.047" y="1423.565" width="248.398" height="48.266" fill="#F8FAFC" style="stroke:#475569;stroke-width:0.5;" rx="12.5" ry="12.5"/><text x="106.047" y="1445.167" fill="#000" font-size="12" textLength="171.334">Publish final execution status</text><text x="106.047" y="1459.3" fill="#000" font-size="12" textLength="228.398">(success or failure) to Job Status Queue</text><rect x="77.931" y="1493.831" width="296.631" height="500.24" fill="none" style="stroke:#000;stroke-width:1.5;"/><path d="M199.787,1493.831 L199.787,1503.319 L189.787,1513.319 L77.931,1513.319" style="stroke:#000;stroke-width:1.5;" fill="none"/><text x="80.931" y="1508.366" fill="#000" font-size="14" textLength="111.856">Job Orchestrator</text><rect x="123.911" y="1530.319" width="192.67" height="34.133" fill="#F8FAFC" style="stroke:#475569;stroke-width:0.5;" rx="12.5" ry="12.5"/><text x="133.911" y="1551.921" fill="#000" font-size="12" textLength="172.67">Receive final execution status</text><rect x="126.196" y="1632.93" width="188.1" height="48.266" fill="#F8FAFC" style="stroke:#475569;stroke-width:0.5;" rx="12.5" ry="12.5"/><text x="136.196" y="1654.531" fill="#000" font-size="12" textLength="94.025">Release job lock</text><text x="136.196" y="1668.664" fill="#000" font-size="12" textLength="168.1">in Job Orchestrator Database</text><polygon points="138.458,1584.452,302.034,1584.452,314.034,1596.452,302.034,1608.452,138.458,1608.452,126.458,1596.452,138.458,1584.452" fill="#EFF6FF" style="stroke:#475569;stroke-width:0.5;stroke-linejoin:miter;stroke-miterlimit:10;"/><text x="224.246" y="1619.087" fill="#000" font-size="11" textLength="17.483">yes</text><text x="138.458" y="1600.609" fill="#000" font-size="11" textLength="163.577">Lock acquired by this attempt?</text><text x="314.034" y="1594.132" fill="#000" font-size="11" textLength="13.583">no</text><polygon points="220.246,1701.195,232.246,1713.195,220.246,1725.195,208.246,1713.195,220.246,1701.195" fill="#EFF6FF" style="stroke:#475569;stroke-width:0.5;stroke-linejoin:miter;stroke-miterlimit:10;"/><rect x="97.931" y="1793.673" width="244.631" height="48.266" fill="#F8FAFC" style="stroke:#475569;stroke-width:0.5;" rx="12.5" ry="12.5"/><text x="107.931" y="1815.274" fill="#000" font-size="12" textLength="224.631">Enqueue execution-failure notification</text><text x="107.931" y="1829.407" fill="#000" font-size="12" textLength="170.912">in Notification Queue (UC3.2)</text><polygon points="175.333,1745.195,265.159,1745.195,277.159,1757.195,265.159,1769.195,175.333,1769.195,163.333,1757.195,175.333,1745.195" fill="#EFF6FF" style="stroke:#475569;stroke-width:0.5;stroke-linejoin:miter;stroke-miterlimit:10;"/><text x="224.246" y="1779.83" fill="#000" font-size="11" textLength="17.483">yes</text><text x="175.333" y="1761.353" fill="#000" font-size="11" textLength="89.826">Execution failed?</text><text x="277.159" y="1754.875" fill="#000" font-size="11" textLength="61.59">no: success</text><polygon points="220.246,1861.938,232.246,1873.938,220.246,1885.938,208.246,1873.938,220.246,1861.938" fill="#EFF6FF" style="stroke:#475569;stroke-width:0.5;stroke-linejoin:miter;stroke-miterlimit:10;"/><rect x="120.536" y="1905.938" width="199.42" height="34.133" fill="#F8FAFC" style="stroke:#475569;stroke-width:0.5;" rx="12.5" ry="12.5"/><text x="130.536" y="1927.54" fill="#000" font-size="12" textLength="179.42">End this job execution attempt</text><ellipse cx="220.246" cy="1971.071" rx="11" ry="11" fill="none" style="stroke:#222;stroke-width:1;"/><ellipse cx="220.246" cy="1971.071" rx="6" ry="6" fill="#222" style="stroke:#222;stroke-width:1;"/><line x1="220.246" y1="102.977" x2="220.246" y2="122.977" style="stroke:#475569;stroke-width:1;"/><polygon points="216.246,112.977,220.246,122.977,224.246,112.977,220.246,116.977" fill="#475569" style="stroke:#475569;stroke-width:1;stroke-linejoin:miter;stroke-miterlimit:10;"/><line x1="220.246" y1="157.109" x2="220.246" y2="177.109" style="stroke:#475569;stroke-width:1;"/><polygon points="216.246,167.109,220.246,177.109,224.246,167.109,220.246,171.109" fill="#475569" style="stroke:#475569;stroke-width:1;stroke-linejoin:miter;stroke-miterlimit:10;"/><line x1="314.508" y1="313.508" x2="314.508" y2="333.508" style="stroke:#475569;stroke-width:1;"/><polygon points="310.508,323.508,314.508,333.508,318.508,323.508,314.508,327.508" fill="#475569" style="stroke:#475569;stroke-width:1;stroke-linejoin:miter;stroke-miterlimit:10;"/><line x1="171.108" y1="257.375" x2="125.984" y2="257.375" style="stroke:#475569;stroke-width:1;"/><line x1="125.984" y1="257.375" x2="125.984" y2="279.375" style="stroke:#475569;stroke-width:1;"/><polygon points="121.984,269.375,125.984,279.375,129.984,269.375,125.984,273.375" fill="#475569" style="stroke:#475569;stroke-width:1;stroke-linejoin:miter;stroke-miterlimit:10;"/><line x1="269.385" y1="257.375" x2="314.508" y2="257.375" style="stroke:#475569;stroke-width:1;"/><line x1="314.508" y1="257.375" x2="314.508" y2="279.375" style="stroke:#475569;stroke-width:1;"/><polygon points="310.508,269.375,314.508,279.375,318.508,269.375,314.508,273.375" fill="#475569" style="stroke:#475569;stroke-width:1;stroke-linejoin:miter;stroke-miterlimit:10;"/><line x1="125.984" y1="313.508" x2="125.984" y2="360.508" style="stroke:#475569;stroke-width:1;"/><line x1="125.984" y1="360.508" x2="220.246" y2="360.508" style="stroke:#475569;stroke-width:1;"/><line x1="220.246" y1="360.508" x2="220.246" y2="376.407" style="stroke:#475569;stroke-width:1;"/><polygon points="216.246,366.407,220.246,376.407,224.246,366.407,220.246,370.407" fill="#475569" style="stroke:#475569;stroke-width:1;stroke-linejoin:miter;stroke-miterlimit:10;"/><line x1="220.246" y1="225.375" x2="220.246" y2="245.375" style="stroke:#475569;stroke-width:1;"/><polygon points="216.246,235.375,220.246,245.375,224.246,235.375,220.246,239.375" fill="#475569" style="stroke:#475569;stroke-width:1;stroke-linejoin:miter;stroke-miterlimit:10;"/><line x1="220.246" y1="654.926" x2="220.246" y2="674.926" style="stroke:#475569;stroke-width:1;"/><polygon points="216.246,664.926,220.246,674.926,224.246,664.926,220.246,668.926" fill="#475569" style="stroke:#475569;stroke-width:1;stroke-linejoin:miter;stroke-miterlimit:10;"/><line x1="220.246" y1="709.059" x2="220.246" y2="729.059" style="stroke:#475569;stroke-width:1;"/><polygon points="216.246,719.059,220.246,729.059,224.246,719.059,220.246,723.059" fill="#475569" style="stroke:#475569;stroke-width:1;stroke-linejoin:miter;stroke-miterlimit:10;"/><line x1="220.246" y1="582.183" x2="220.246" y2="606.66" style="stroke:#475569;stroke-width:1;"/><polygon points="216.246,596.66,220.246,606.66,224.246,596.66,220.246,600.66" fill="#475569" style="stroke:#475569;stroke-width:1;stroke-linejoin:miter;stroke-miterlimit:10;"/><line x1="271.745" y1="570.183" x2="342.647" y2="570.183" style="stroke:#475569;stroke-width:1;"/><polygon points="338.647,665.859,342.647,675.859,346.647,665.859,342.647,669.859" fill="#475569" style="stroke:#475569;stroke-width:1;stroke-linejoin:miter;stroke-miterlimit:10;"/><line x1="342.647" y1="570.183" x2="342.647" y2="773.059" style="stroke:#475569;stroke-width:1;"/><line x1="342.647" y1="773.059" x2="220.246" y2="773.059" style="stroke:#475569;stroke-width:1;"/><line x1="220.246" y1="773.059" x2="220.246" y2="793.059" style="stroke:#475569;stroke-width:1;"/><polygon points="216.246,783.059,220.246,793.059,224.246,783.059,220.246,787.059" fill="#475569" style="stroke:#475569;stroke-width:1;stroke-linejoin:miter;stroke-miterlimit:10;"/><line x1="220.246" y1="538.183" x2="220.246" y2="558.183" style="stroke:#475569;stroke-width:1;"/><polygon points="216.246,548.183,220.246,558.183,224.246,548.183,220.246,552.183" fill="#475569" style="stroke:#475569;stroke-width:1;stroke-linejoin:miter;stroke-miterlimit:10;"/><line x1="220.246" y1="465.439" x2="220.246" y2="489.917" style="stroke:#475569;stroke-width:1;"/><polygon points="216.246,479.917,220.246,489.917,224.246,479.917,220.246,483.917" fill="#475569" style="stroke:#475569;stroke-width:1;stroke-linejoin:miter;stroke-miterlimit:10;"/><line x1="269.718" y1="453.439" x2="364.647" y2="453.439" style="stroke:#475569;stroke-width:1;"/><polygon points="360.647,633.227,364.647,643.227,368.647,633.227,364.647,637.227" fill="#475569" style="stroke:#475569;stroke-width:1;stroke-linejoin:miter;stroke-miterlimit:10;"/><line x1="364.647" y1="453.439" x2="364.647" y2="805.059" style="stroke:#475569;stroke-width:1;"/><line x1="364.647" y1="805.059" x2="232.246" y2="805.059" style="stroke:#475569;stroke-width:1;"/><polygon points="242.246,801.059,232.246,805.059,242.246,809.059,238.246,805.059" fill="#475569" style="stroke:#475569;stroke-width:1;stroke-linejoin:miter;stroke-miterlimit:10;"/><line x1="220.246" y1="410.54" x2="220.246" y2="441.439" style="stroke:#475569;stroke-width:1;"/><polygon points="216.246,431.439,220.246,441.439,224.246,431.439,220.246,435.439" fill="#475569" style="stroke:#475569;stroke-width:1;stroke-linejoin:miter;stroke-miterlimit:10;"/><line x1="220.246" y1="817.059" x2="220.246" y2="837.059" style="stroke:#475569;stroke-width:1;"/><polygon points="216.246,827.059,220.246,837.059,224.246,827.059,220.246,831.059" fill="#475569" style="stroke:#475569;stroke-width:1;stroke-linejoin:miter;stroke-miterlimit:10;"/><line x1="220.246" y1="1023.855" x2="220.246" y2="1048.333" style="stroke:#475569;stroke-width:1;"/><polygon points="216.246,1038.333,220.246,1048.333,224.246,1038.333,220.246,1042.333" fill="#475569" style="stroke:#475569;stroke-width:1;stroke-linejoin:miter;stroke-miterlimit:10;"/><line x1="300.991" y1="1010.9" x2="362.353" y2="1010.9" style="stroke:#475569;stroke-width:1;"/><polygon points="358.353,1054.922,362.353,1064.922,366.353,1054.922,362.353,1058.922" fill="#475569" style="stroke:#475569;stroke-width:1;stroke-linejoin:miter;stroke-miterlimit:10;"/><line x1="362.353" y1="1010.9" x2="362.353" y2="1114.466" style="stroke:#475569;stroke-width:1;"/><line x1="362.353" y1="1114.466" x2="232.246" y2="1114.466" style="stroke:#475569;stroke-width:1;"/><polygon points="242.246,1110.466,232.246,1114.466,242.246,1118.466,238.246,1114.466" fill="#475569" style="stroke:#475569;stroke-width:1;stroke-linejoin:miter;stroke-miterlimit:10;"/><line x1="220.246" y1="1082.466" x2="220.246" y2="1102.466" style="stroke:#475569;stroke-width:1;"/><polygon points="216.246,1092.466,220.246,1102.466,224.246,1092.466,220.246,1096.466" fill="#475569" style="stroke:#475569;stroke-width:1;stroke-linejoin:miter;stroke-miterlimit:10;"/><line x1="220.246" y1="977.945" x2="220.246" y2="997.945" style="stroke:#475569;stroke-width:1;"/><polygon points="216.246,987.945,220.246,997.945,224.246,987.945,220.246,991.945" fill="#475569" style="stroke:#475569;stroke-width:1;stroke-linejoin:miter;stroke-miterlimit:10;"/><line x1="220.246" y1="1126.466" x2="220.246" y2="1146.466" style="stroke:#475569;stroke-width:1;"/><polygon points="216.246,1136.466,220.246,1146.466,224.246,1136.466,220.246,1140.466" fill="#475569" style="stroke:#475569;stroke-width:1;stroke-linejoin:miter;stroke-miterlimit:10;"/><line x1="220.246" y1="1278.731" x2="220.246" y2="1299.165" style="stroke:#475569;stroke-width:1;"/><polygon points="216.246,1289.165,220.246,1299.165,224.246,1289.165,220.246,1293.165" fill="#475569" style="stroke:#475569;stroke-width:1;stroke-linejoin:miter;stroke-miterlimit:10;"/><line x1="220.246" y1="1224.599" x2="220.246" y2="1244.599" style="stroke:#475569;stroke-width:1;"/><polygon points="216.246,1234.599,220.246,1244.599,224.246,1234.599,220.246,1238.599" fill="#475569" style="stroke:#475569;stroke-width:1;stroke-linejoin:miter;stroke-miterlimit:10;"/><line x1="294.688" y1="1379.431" x2="646.864" y2="1379.431" style="stroke:#475569;stroke-width:1;"/><polygon points="642.864,1298.731,646.864,1288.731,650.864,1298.731,646.864,1294.731" fill="#475569" style="stroke:#475569;stroke-width:1;stroke-linejoin:miter;stroke-miterlimit:10;"/><line x1="646.864" y1="1212.599" x2="646.864" y2="1379.431" style="stroke:#475569;stroke-width:1;"/><line x1="646.864" y1="1212.599" x2="232.246" y2="1212.599" style="stroke:#475569;stroke-width:1;"/><polygon points="242.246,1208.599,232.246,1212.599,242.246,1216.599,238.246,1212.599" fill="#475569" style="stroke:#475569;stroke-width:1;stroke-linejoin:miter;stroke-miterlimit:10;"/><line x1="220.246" y1="1347.431" x2="220.246" y2="1367.431" style="stroke:#475569;stroke-width:1;"/><polygon points="216.246,1357.431,220.246,1367.431,224.246,1357.431,220.246,1361.431" fill="#475569" style="stroke:#475569;stroke-width:1;stroke-linejoin:miter;stroke-miterlimit:10;"/><line x1="220.246" y1="1180.599" x2="220.246" y2="1200.599" style="stroke:#475569;stroke-width:1;"/><polygon points="216.246,1190.599,220.246,1200.599,224.246,1190.599,220.246,1194.599" fill="#475569" style="stroke:#475569;stroke-width:1;stroke-linejoin:miter;stroke-miterlimit:10;"/><line x1="220.246" y1="1391.431" x2="220.246" y2="1423.565" style="stroke:#475569;stroke-width:1;"/><polygon points="216.246,1413.565,220.246,1423.565,224.246,1413.565,220.246,1417.565" fill="#475569" style="stroke:#475569;stroke-width:1;stroke-linejoin:miter;stroke-miterlimit:10;"/><line x1="220.246" y1="885.324" x2="220.246" y2="943.813" style="stroke:#475569;stroke-width:1;"/><polygon points="216.246,933.813,220.246,943.813,224.246,933.813,220.246,937.813" fill="#475569" style="stroke:#475569;stroke-width:1;stroke-linejoin:miter;stroke-miterlimit:10;"/><line x1="220.246" y1="1608.452" x2="220.246" y2="1632.93" style="stroke:#475569;stroke-width:1;"/><polygon points="216.246,1622.93,220.246,1632.93,224.246,1622.93,220.246,1626.93" fill="#475569" style="stroke:#475569;stroke-width:1;stroke-linejoin:miter;stroke-miterlimit:10;"/><line x1="314.034" y1="1596.452" x2="326.034" y2="1596.452" style="stroke:#475569;stroke-width:1;"/><polygon points="322.034,1647.063,326.034,1657.063,330.034,1647.063,326.034,1651.063" fill="#475569" style="stroke:#475569;stroke-width:1;stroke-linejoin:miter;stroke-miterlimit:10;"/><line x1="326.034" y1="1596.452" x2="326.034" y2="1713.195" style="stroke:#475569;stroke-width:1;"/><line x1="326.034" y1="1713.195" x2="232.246" y2="1713.195" style="stroke:#475569;stroke-width:1;"/><polygon points="242.246,1709.195,232.246,1713.195,242.246,1717.195,238.246,1713.195" fill="#475569" style="stroke:#475569;stroke-width:1;stroke-linejoin:miter;stroke-miterlimit:10;"/><line x1="220.246" y1="1681.195" x2="220.246" y2="1701.195" style="stroke:#475569;stroke-width:1;"/><polygon points="216.246,1691.195,220.246,1701.195,224.246,1691.195,220.246,1695.195" fill="#475569" style="stroke:#475569;stroke-width:1;stroke-linejoin:miter;stroke-miterlimit:10;"/><line x1="220.246" y1="1564.452" x2="220.246" y2="1584.452" style="stroke:#475569;stroke-width:1;"/><polygon points="216.246,1574.452,220.246,1584.452,224.246,1574.452,220.246,1578.452" fill="#475569" style="stroke:#475569;stroke-width:1;stroke-linejoin:miter;stroke-miterlimit:10;"/><line x1="220.246" y1="1769.195" x2="220.246" y2="1793.673" style="stroke:#475569;stroke-width:1;"/><polygon points="216.246,1783.673,220.246,1793.673,224.246,1783.673,220.246,1787.673" fill="#475569" style="stroke:#475569;stroke-width:1;stroke-linejoin:miter;stroke-miterlimit:10;"/><line x1="277.159" y1="1757.195" x2="352.562" y2="1757.195" style="stroke:#475569;stroke-width:1;"/><polygon points="348.562,1807.806,352.562,1817.806,356.562,1807.806,352.562,1811.806" fill="#475569" style="stroke:#475569;stroke-width:1;stroke-linejoin:miter;stroke-miterlimit:10;"/><line x1="352.562" y1="1757.195" x2="352.562" y2="1873.938" style="stroke:#475569;stroke-width:1;"/><line x1="352.562" y1="1873.938" x2="232.246" y2="1873.938" style="stroke:#475569;stroke-width:1;"/><polygon points="242.246,1869.938,232.246,1873.938,242.246,1877.938,238.246,1873.938" fill="#475569" style="stroke:#475569;stroke-width:1;stroke-linejoin:miter;stroke-miterlimit:10;"/><line x1="220.246" y1="1841.938" x2="220.246" y2="1861.938" style="stroke:#475569;stroke-width:1;"/><polygon points="216.246,1851.938,220.246,1861.938,224.246,1851.938,220.246,1855.938" fill="#475569" style="stroke:#475569;stroke-width:1;stroke-linejoin:miter;stroke-miterlimit:10;"/><line x1="220.246" y1="1725.195" x2="220.246" y2="1745.195" style="stroke:#475569;stroke-width:1;"/><polygon points="216.246,1735.195,220.246,1745.195,224.246,1735.195,220.246,1739.195" fill="#475569" style="stroke:#475569;stroke-width:1;stroke-linejoin:miter;stroke-miterlimit:10;"/><line x1="220.246" y1="1885.938" x2="220.246" y2="1905.938" style="stroke:#475569;stroke-width:1;"/><polygon points="216.246,1895.938,220.246,1905.938,224.246,1895.938,220.246,1899.938" fill="#475569" style="stroke:#475569;stroke-width:1;stroke-linejoin:miter;stroke-miterlimit:10;"/><line x1="220.246" y1="1940.071" x2="220.246" y2="1960.071" style="stroke:#475569;stroke-width:1;"/><polygon points="216.246,1950.071,220.246,1960.071,224.246,1950.071,220.246,1954.071" fill="#475569" style="stroke:#475569;stroke-width:1;stroke-linejoin:miter;stroke-miterlimit:10;"/><line x1="220.246" y1="1471.831" x2="220.246" y2="1530.319" style="stroke:#475569;stroke-width:1;"/><polygon points="216.246,1520.319,220.246,1530.319,224.246,1520.319,220.246,1524.319" fill="#475569" style="stroke:#475569;stroke-width:1;stroke-linejoin:miter;stroke-miterlimit:10;"/><?plantuml-src dLHBZnCv4BxdLvJWaaWmguNbbJciXZ2HM24Uaq5Svk9sLtTxnx4RkpmXMl7Vjyhff3kJ1WakIHINgpv_Zo935k7puidPdtEu_8Ow4OA2Vtm1YlZ7IZTO9eibN9irJYRnrhXM1RM6sAZIRuoheL8suk2an4ebIqllwBrQ8woKYoiCfXhKN8JWDmjlVO27Vxruzkpvgy6XqcJk36tXlmd0QwLlw-2JAxlovSlbnN8X9pwK68wR0BmnQkrTUNBjShbylbmE2aPkVvzC604PCjx10o7XGs028WL5FZp8U29n1N_Ftph2u9I5s74Ke381uxaSNY45WtS8PKBurnVn4KIdsjXuuf_AbOTRySPLmQ_X_ZHueqWLAgBqCnLCBzmsTvAMVy-06dGmtMASyJbFNBNMqAx0EF8WL5gB5Wf5qbNQ80i5K-UxAvSz3D5HRxNDq-IHlfLwLx9gyfxNM1i7tkN706QZ24cA2DSjoItdsJh1r0tb5jSDGcNz1WgKpv2S02knvQReo6wXyY5Nej9DRiiJ-5KdoCzo5OCLaEem4qgFKQPcjE3vQiZlFziXpu0c7NahlckH635NZB1tqVLaufJ-cbZ7ZCXwVNlZ6DTFrTcDUCUr-ylbwOXZxZFxNnEoEsJ6uqePctWeOpQLqKh8pOFV3_w0J_d2zFFYwTcJsNdVgEHX9Xw8sHXgVA9Ufdrf9-jUs1xK7BHtEeN0oioEXD-Zx2LdOzSrXWCjbuUJ3Ezy94LNoJdiyiFHq6ZkHZhkZTxld449RvyR5ybOkxT9bOWP6z7oY-8W9CUrXv3TRyKSNYzczoFHlteb8HTEAbFpaBAp9s4Tr9xGm5PMEw_FFnGH0xzfK09jy3MlWmZi5ktNBTll80KF22YRxevrLuKL5zGnxmKMharq8n7kCVCf_D4TYOf1rTXZW4rZkCMqLs9756UEHQgP8ZP79YZ79UiTazOTkCvxi_4CMy_XOjFhMyO7CUUeHxRBvjj160DllgsqvRTd5aMh0I_tqpd_c0fhOiFBKvOf3jwWAF5sd8v0bPoAiLQvviV6ErtV1_kDZzjxy2ZCK6oF0ZRYkIkqoDlW5vR6gF5aTA-Yl7PibPo6ydVtHv__ZkGUpN2n_73dvuNoVV8_?></g></svg>